# xmcd
#
# Track frame offsets: 
#        150
#        19745
#        33875
#        62851
#        78476
#        97699
#        119905
#        136491
#        155718
#        178603
#        200621
#        224486
#
# Disc length: 3312 seconds
#
# Revision: 0
# Processed by: cddbd v1.5.2PL0 Copyright (c) Steve Scherf et al.
# Submitted via: ExactAudioCopy v0.99pb3
#
DISCID=ac0cee0c
DTITLE=Michael Lee Firkins - Collection
DYEAR=2009
DGENRE=Blues
TTITLE0=Laughing Stacks
TTITLE1=Runnaway Train
TTITLE2=Deja Blues
TTITLE3=Cactus Cruz
TTITLE4=Big Red
TTITLE5=Hypno 5
TTITLE6=B.H. Express
TTITLE7=Hawaiian Gospel
TTITLE8=Freeway Lines
TTITLE9=Saturday Night
TTITLE10=Midnight Surf
TTITLE11=Sanford and Son
EXTD=
EXTT0=
EXTT1=
EXTT2=
EXTT3=
EXTT4=
EXTT5=
EXTT6=
EXTT7=
EXTT8=
EXTT9=
EXTT10=
EXTT11=
PLAYORDER=
